<svg height="512" viewBox="0 0 60 60" width="512" xmlns="http://www.w3.org/2000/svg"><g id="Page-1" fill="none" fill-rule="evenodd"><g id="088---Selfie-Stick" fill="rgb(0,0,0)" fill-rule="nonzero"><path id="Shape" d="m55 2h-14.184c-.4222546-1.19435086-1.5492146-1.99474861-2.816-2h-16c-1.2667854.00525139-2.3937454.80564914-2.816 2h-14.184c-2.76005315.00330612-4.99669388 2.23994685-5 5v24c.00330612 2.7600532 2.23994685 4.9966939 5 5h14.184c.3025307.846935.969065 1.5134693 1.816 1.816v2.184c0 2.209139 1.790861 4 4 4h1v14c0 1.1045695.8954305 2 2 2h4c1.1045695 0 2-.8954305 2-2v-14h1c2.209139 0 4-1.790861 4-4v-2.184c.846935-.3025307 1.5134693-.969065 1.816-1.816h14.184c2.7600532-.0033061 4.9966939-2.2399468 5-5v-24c-.0033061-2.76005315-2.2399468-4.99669388-5-5zm-34 1c0-.55228475.4477153-1 1-1h16c.5522847 0 1 .44771525 1 1v1h-18zm-19 8h2v16h-2zm30 47h-4v-14h4zm5-18c0 1.1045695-.8954305 2-2 2h-10c-1.1045695 0-2-.8954305-2-2v-2h14zm2-5c0 .5522847-.4477153 1-1 1h-16c-.5522847 0-1-.4477153-1-1v-1h18zm16-1h-14v-1c0-.5522847-.4477153-1-1-1h-20c-.5522847 0-1 .4477153-1 1v1h-14c-1.65685425 0-3-1.3431458-3-3v-2h2c1.1045695 0 2-.8954305 2-2v-16c0-1.1045695-.8954305-2-2-2h-2v-2c0-1.65685425 1.34314575-3 3-3h14v1c0 .55228475.4477153 1 1 1h20c.5522847 0 1-.44771525 1-1v-1h9v27c0 .5522847.4477153 1 1 1s1-.4477153 1-1v-27h3c1.6568542 0 3 1.34314575 3 3v6.184c-.320257-.1184378-.6585603-.1806856-1-.184-1.6568542 0-3 1.3431458-3 3v6c0 1.6568542 1.3431458 3 3 3 .3414397-.0033144.679743-.0655622 1-.184v6.184c0 .7956495-.3160705 1.5587112-.8786797 2.1213203-.5626091.5626092-1.3256708.8786797-2.1213203.8786797zm3-12c0 .5522847-.4477153 1-1 1s-1-.4477153-1-1v-6c0-.5522847.4477153-1 1-1s1 .4477153 1 1z"/><path id="Shape" d="m13 7h-4c-.55228475 0-1 .44771525-1 1v4c0 .5522847.44771525 1 1 1s1-.4477153 1-1v-3h3c.5522847 0 1-.44771525 1-1s-.4477153-1-1-1z"/><path id="Shape" d="m13 29h-3v-3c0-.5522847-.44771525-1-1-1s-1 .4477153-1 1v4c0 .5522847.44771525 1 1 1h4c.5522847 0 1-.4477153 1-1s-.4477153-1-1-1z"/><path id="Shape" d="m47 25c-.5522847 0-1 .4477153-1 1v3h-3c-.5522847 0-1 .4477153-1 1s.4477153 1 1 1h4c.5522847 0 1-.4477153 1-1v-4c0-.5522847-.4477153-1-1-1z"/><path id="Shape" d="m47 7h-4c-.5522847 0-1 .44771525-1 1s.4477153 1 1 1h3v3c0 .5522847.4477153 1 1 1s1-.4477153 1-1v-4c0-.55228475-.4477153-1-1-1z"/><path id="Shape" d="m31 18h-2v-2c0-.5522847-.4477153-1-1-1s-1 .4477153-1 1v2h-2c-.5522847 0-1 .4477153-1 1s.4477153 1 1 1h2v2c0 .5522847.4477153 1 1 1s1-.4477153 1-1v-2h2c.5522847 0 1-.4477153 1-1s-.4477153-1-1-1z"/></g></g></svg>